<svg width="83" height="81" viewBox="0 0 83 81" fill="none" xmlns="http://www.w3.org/2000/svg">
<path d="M68.7536 14.1823C72.1304 17.8329 72.2648 24.0026 69.5207 31.1762C66.7874 38.3216 61.2418 46.3238 53.5175 53.469C45.793 60.6143 37.3831 65.5211 30.0466 67.6903C22.6814 69.8679 16.5407 69.2541 13.1638 65.6036C9.78706 61.9529 9.65276 55.7831 12.3967 48.6096C15.13 41.4641 20.6762 33.4614 28.4007 26.3161C36.125 19.171 44.5344 14.2647 51.8708 12.0955C59.2361 9.9178 65.3766 10.5317 68.7536 14.1823Z" stroke="white" stroke-width="0.857195"/>
<path d="M65.1688 39.7142C62.4653 44.1281 58.9231 48.4986 54.8112 52.4767C50.6997 56.4544 46.1491 59.9137 41.5205 62.5885" stroke="white" stroke-width="3.67369"/>
<rect x="40.8072" y="16.8842" width="3.39519" height="61.1606" fill="white" stroke="white" stroke-width="0.278498"/>
<path d="M43.219 15.4451L78.0102 49.7847L76.3736 52.9473L40.6813 16.9014L43.219 15.4451Z" fill="white" stroke="white" stroke-width="0.278498"/>
<path d="M23.2373 11.0926C23.5904 13.2872 25.3113 15.0081 27.5059 15.3611L36.1055 16.7449L27.5059 18.1287C25.3113 18.4818 23.5904 20.2027 23.2373 22.3973L21.8535 30.9969L20.4697 22.3973C20.1166 20.2027 18.3957 18.4818 16.2012 18.1287L7.60059 16.7449L16.2012 15.3611C18.3957 15.0081 20.1166 13.2872 20.4697 11.0926L21.8535 2.492L23.2373 11.0926Z" fill="white" stroke="white" stroke-width="0.278498"/>
</svg>
